<svg viewBox="0 0 841.89 595.28" enable-background="new 0 0 841.89 595.28">
<g data-id="1">
	<path display="inline" fill="none" stroke="#000000" stroke-width="4" stroke-miterlimit="10" d="M532.25,36.5
		c24.25,0,33.408,14.249,31.908,40.749c-1.881,33.22-3.988,94.509-4.658,107.501c-1.25,24.25,4.462,31.206,13.75,48.75
		c11.25,21.25,20.25,35.75,29,47c7.37,9.477,16.5,22.477,13,34.25c-5.179,17.419-28.404,21.161-35,22.75
		c-5.777,1.392-27.17,5.104-31.404,6.648c-6.574,2.398-18.096,4.602-31.846,25.352S408.195,534.885,402.386,542.841
		c-4.241,5.809-11.792,19.194-20.636,24.159c-14.25,8-33.771,5.872-47.5-9.75c-21.75-24.75-72.25-82.5-87.25-99
		s-18.25-36,3.25-60.25s52.15-58.248,65-72C329.5,310.75,332,303,332,271.5c0-28.001,0.75-102.75,1-122s0.25-26,0.5-52.5
		c0.081-8.557,2.52-18.24,8.274-26.62c4.973-7.242,10.128-4.47,13.476-8.13c3.202-3.502-0.05-8.252,6.938-13.188
		C372.714,41.628,384.297,36.5,398.25,36.5C434.75,36.5,532.25,36.5,532.25,36.5z"/>
</g>
</svg>
