<svg viewBox="0 0 841.89 595.28" enable-background="new 0 0 841.89 595.28">
<g data-id="2">
	<path display="inline" fill="none" stroke="#000000" stroke-width="4" stroke-miterlimit="10" d="M348.151,61.388
		C360.767,48.046,377.719,36.5,398.25,36.5c36.5,0,134,0,134,0c24.25,0,33.408,14.249,31.908,40.749
		c-1.881,33.22-3.988,94.509-4.658,107.501c-1.25,24.25,4.462,31.206,13.75,48.75c11.25,21.25,20.25,35.75,29,47
		c7.37,9.477,16.5,22.477,13,34.25c-5.179,17.419-28.404,21.161-35,22.75c-5.777,1.392-27.17,5.104-31.404,6.648
		c-6.574,2.398-18.096,4.602-31.846,25.352S408.195,534.885,402.386,542.841c-4.241,5.809-11.792,19.194-20.636,24.159
		c-14.25,8-33.771,5.872-47.5-9.75c-21.75-24.75-72.25-82.5-87.25-99s-18.25-36,3.25-60.25s52.15-58.248,65-72
		C329.5,310.75,332,303,332,271.5c0-28.001,0.763-102.75,1-122c0.094-7.624,1.086-22.178-10.25-21.625
		c-5.125,0.25-6.723,0.183-8.974-2.771c-5.651-7.417,1.599-14.729,8.099-24.354S340.125,69.875,348.151,61.388z"/>
</g>
</svg>
