<svg viewBox="0 0 841.89 595.28" enable-background="new 0 0 841.89 595.28">
<g data-id="3">
	<path display="inline" fill="none" stroke="#000000" stroke-width="4" stroke-miterlimit="10" d="M338.333,557.833
		C348.762,573.663,370,574,381.75,567c8.713-5.19,16.395-18.351,20.636-24.159C408.195,534.885,503.25,390.25,517,369.5
		c9.254-13.965,17.167-20.427,23.904-22.406C567.809,339.188,576.75,319.5,563.5,303s-9.716-26.194,3.784-55.444
		c7.64-16.552-0.034-25.556-1.452-27.972c-5.365-9.142-7.199-17.996-6.332-34.834c0.67-12.992,3.535-57.259,5-90.5
		c1.729-39.215-12-57.75-31.25-57.75c0,0-98.5,0-135,0c-20.531,0-37.483,11.546-50.099,24.888
		c-8.026,8.487-19.776,29.737-26.276,39.362s-13.125,18.75-8.099,24.354S328.25,136,336.5,141.25s15.5,1.75,18.25-4.75
		s7-14.5,12.5-26.75s17-12.25,22.5-7.5s3.75,5.25,13.75,15.5s5.75,19.25-3.75,25.25s-38.5,20.75-51.75,27.25
		s-15.5,8.75-15.483,25.503C332.544,223.45,332,255.299,332,271.5c0,31.5-2.5,39.25-16.75,54.5c-12.85,13.752-43.5,47.75-65,72
		s-19.211,44.679-3.25,60.25c3.5,3.414,13.833,7.748,24.5-0.752s16.333-2.334,19.667,3.666s9.834,17.334,13.167,23.667
		s9.667,12.833,13,15.333s14.167,16.832,16.833,25.666S333.834,551.003,338.333,557.833z"/>
</g>
</svg>
