<svg viewBox="0 0 841.89 595.28" enable-background="new 0 0 841.89 595.28">
<g data-id="4">
	<path display="inline" fill="none" stroke="#000000" stroke-width="4" stroke-miterlimit="10" d="M402.386,542.841
		C408.195,534.885,503.25,390.25,517,369.5c9.254-13.965,17.167-20.427,23.904-22.406C567.809,339.188,576.75,319.5,563.5,303
		s-9.716-26.194,3.784-55.444c7.64-16.552-0.034-25.556-1.452-27.972c-5.365-9.142-7.199-17.996-6.332-34.834
		c0.625-12.13,3.821-51.498,4.691-83.75c0.142-5.25-13.84-47.434-15.44-53.5c-2.001-7.584-4.501-11.002-14.167-11.001
		c0,0-99.834,0.001-136.334,0.001c-20.531,0-37.483,11.546-50.099,24.888c-8.026,8.487-19.776,29.737-26.276,39.362
		s-13.125,18.75-8.099,24.354S328.25,136,336.5,141.25s15.5,1.75,18.25-4.75c2.014-4.76,4.807-10.336,8.356-17.774
		c6.658-13.952,15.56-6.393,17.394-2.226s4.167,8.946,8.5,18.333c4,8.667,0.638,13.977-4.474,16.737
		c-12.277,6.629-27.818,14.408-36.526,18.68c-13.25,6.5-15.5,8.75-15.483,25.503c0.02,20.128-0.251,42.448-0.417,59.362
		c-0.116,11.78,3.901,12.216,12.068,19.383s5.167,13.5,1.333,18.167s-5.667,6.833-30.25,33.335c-12.8,13.799-43.5,47.75-65,72
		s-19.211,44.679-3.25,60.25c3.5,3.414,13.821,7.733,24.5-0.752c9.75-7.748,12.315-3.914,16,1.877
		c1.75,2.75,12.625,18.625,15.375,22.625s14.375,17.625,21,25.625s19.5,20,23,23.625s11.25,10.75,14.75,14s8,10.25,9,12
		s4.75,7,11.125,6.625s8.715-3.427,11.251-7.326C396.031,551.891,402.386,542.841,402.386,542.841z"/>
</g>
</svg>
