<svg viewBox="0 0 841.89 595.28" enable-background="new 0 0 841.89 595.28">
<g data-id="5">
	<path display="inline" fill="none" stroke="#000000" stroke-width="4" stroke-miterlimit="10" d="M302.875,482
		c-2.75-4-13.625-19.875-15.375-22.625c-3.685-5.791-6.25-9.625-16-1.877c-10.678,8.485-21,4.166-24.5,0.752
		c-15.961-15.571-18.25-36,3.25-60.25s52.2-58.201,65-72c24.583-26.502,26.417-28.668,30.25-33.335s6.834-11-1.333-18.167
		s-12.184-7.603-12.068-19.383c0.166-16.915,0.438-39.234,0.417-59.362C332.5,179,334.75,176.75,348,170.25
		c8.708-4.271,24.249-12.05,36.526-18.68c5.112-2.76,8.474-8.07,4.474-16.737c-4.333-9.387-6.667-14.167-8.5-18.333
		s-10.735-11.726-17.394,2.226c-3.549,7.438-6.343,13.014-8.356,17.774c-2.75,6.5-10,10-18.25,4.75s-17.698-10.542-22.724-16.146
		s1.599-14.729,8.099-24.354s18.25-30.875,26.276-39.362C360.767,48.046,377.719,36.5,398.25,36.5
		c36.5,0,136.334-0.001,136.334-0.001c9.666-0.001,12.166,3.417,14.167,11.001c1.601,6.066,15.582,48.25,15.44,53.5
		c-0.87,32.252-4.066,71.62-4.691,83.75c-0.867,16.838,0.967,25.692,6.332,34.834c1.418,2.416,9.092,11.42,1.452,27.972
		c-13.5,29.25-17.034,38.944-3.784,55.444s4.309,36.188-22.596,44.094c-6.737,1.979-14.65,8.441-23.904,22.406
		c-13.75,20.75-101.627,154.076-107.114,162.258c-4.785,7.135-16.136,21.742-24.636,27.742s-21.375,10.25-32.25,2.125
		c-12.357-9.232-12.125-17.375-19.25-34.375C328.553,514.85,302.875,482,302.875,482z"/>
</g>
</svg>
