<svg viewBox="0 0 841.89 595.28" enable-background="new 0 0 841.89 595.28">
<g data-id="6">
	<path display="inline" fill="none" stroke="#000000" stroke-width="4" stroke-miterlimit="10" d="M321.875,100.75
		c6.158-9.848,18.25-30.875,26.276-39.362C360.767,48.046,377.719,36.5,398.25,36.5c27.249,0,89.794,0,119.75,0
		c14.25,0,26.25,1.75,34,24.75s9,54.5,9.5,65s-0.644,37.723-1.016,43.215c-0.451,6.654-0.814,11.98-0.984,15.285
		c-0.867,16.838,0.967,25.692,6.332,34.834c1.418,2.416,9.092,11.42,1.452,27.972c-13.5,29.25-17.034,38.944-3.784,55.444
		s4.309,36.188-22.596,44.094c-6.737,1.979-14.65,8.441-23.904,22.406c-13.75,20.75-101.627,154.076-107.114,162.258
		c-4.785,7.135-16.136,21.742-24.636,27.742s-21.375,10.25-32.25,2.125c-12.357-9.232-12.125-17.375-19.25-34.375
		c-5.197-12.4-30.875-45.25-30.875-45.25c-2.75-4-13.625-19.875-15.375-22.625c-3.685-5.791-6.25-9.625-16-1.877
		c-10.678,8.485-21,4.166-24.5,0.752c-15.961-15.571-18.25-36,3.25-60.25s52.2-58.201,65-72
		c24.583-26.502,26.417-28.668,30.25-33.335s6.834-11-1.333-18.167s-12.184-7.603-12.068-19.383
		c0.166-16.915,0.438-39.234,0.417-59.362C332.5,179,334.75,176.75,348,170.25c8.708-4.271,24.024-12.485,36.526-18.68
		C393.75,147,399.5,133.5,392,121.25s-12.235-21.509-15.75-27.5c-5.917-10.084-20.417-8.167-23,6.75
		c-1.992,11.501-1.5,26.667-14.5,30.667S308.327,122.417,321.875,100.75z"/>
</g>
</svg>
