<svg viewBox="0 0 841.89 595.28" enable-background="new 0 0 841.89 595.28">
<g data-id="7">
	<path fill="none" stroke="#000000" stroke-width="4" stroke-miterlimit="10" d="M353.25,100.5
		c-1.992,11.501-1.5,26.667-14.5,30.667s-30.422-8.75-16.875-30.417c6.158-9.848,18.25-30.875,26.276-39.362
		C360.767,48.046,377.719,36.5,398.25,36.5c27.249,0,89.794,0,119.75,0c14.25,0,26.25,1.75,34,24.75s9,54.5,9.5,65
		s-0.644,37.723-1.016,43.215c-0.451,6.654-0.814,11.98-0.984,15.285c-0.867,16.838,0.967,25.692,6.332,34.834
		c1.418,2.416,9.092,11.42,1.452,27.972c-13.5,29.25-17.034,38.944-3.784,55.444s4.309,36.188-22.596,44.094
		c-6.737,1.979-14.65,8.441-23.904,22.406c-13.75,20.75-101.627,154.076-107.114,162.258c-4.785,7.135-16.136,21.742-24.636,27.742
		s-21.375,10.25-32.25,2.125c-12.357-9.232-12.125-17.375-19.25-34.375c-5.197-12.4-30.875-45.25-30.875-45.25
		c-2.75-4-13.625-19.875-15.375-22.625c-3.685-5.791-5.762-8.967-16-1.877c-19.5,13.503-28.833-11.664-31.667-17.997
		s-4.167-12.167-4.5-19s0.75-6.833,5.167-11.834c21.454-24.291,61.95-68.868,74.75-82.667
		c14.245-15.357,21.078-22.351,24.634-26.778c3.491-4.347,10.991-11.222,27.991-7.472s33.5,8.818,44.5,7.472
		s19.5-5.847,26.875-11.097s31-20.875,38.875-26.125s14.75-3.5,16.375,6.125S498,285.75,498.875,290s1.625,12.125,10.375,10.625
		s17-29,18.25-36.125s1.25-8.75,1.875-13.625s-1.75-8.875-5.125-12.5s-121.375-129.5-129-137.75s-15.75-15.875-28.875-13.5
		S353.25,100.5,353.25,100.5z"/>
</g>
</svg>
