<svg viewBox="0 0 841.89 595.28" enable-background="new 0 0 841.89 595.28">
<g data-id="0">
	<path display="inline" fill="none" stroke="#000000" stroke-width="4" stroke-miterlimit="10" d="M532.25,36.5
		c24.25,0,33.408,14.249,31.908,40.749c-1.881,33.22-3.988,94.509-4.658,107.501c-1.25,24.25,4.462,31.206,13.75,48.75
		c11.25,21.25,20.25,35.75,29,47c7.37,9.477,16.5,22.477,13,34.25c-5.179,17.419-28.404,21.161-35,22.75
		c-5.777,1.392-27.17,5.104-31.404,6.648c-6.574,2.398-18.096,4.602-31.846,25.352S408.195,534.885,402.386,542.841
		c-4.241,5.809-11.792,19.194-20.636,24.159c-14.25,8-33.771,5.872-47.5-9.75c-21.75-24.75-72.25-82.5-87.25-99
		s-18.25-36,3.25-60.25s52.15-58.248,65-72C329.5,310.75,332,303,332,271.5c0-28.001,0.75-102.75,1-122s0.25-26,0.5-52.5
		s28.25-60.5,64.75-60.5S532.25,36.5,532.25,36.5z"/>
</g>
<g data-id="1">
	<path display="inline" fill="none" stroke="#000000" stroke-width="4" stroke-miterlimit="10" d="M532.25,36.5
		c24.25,0,33.408,14.249,31.908,40.749c-1.881,33.22-3.988,94.509-4.658,107.501c-1.25,24.25,4.462,31.206,13.75,48.75
		c11.25,21.25,20.25,35.75,29,47c7.37,9.477,16.5,22.477,13,34.25c-5.179,17.419-28.404,21.161-35,22.75
		c-5.777,1.392-27.17,5.104-31.404,6.648c-6.574,2.398-18.096,4.602-31.846,25.352S408.195,534.885,402.386,542.841
		c-4.241,5.809-11.792,19.194-20.636,24.159c-14.25,8-33.771,5.872-47.5-9.75c-21.75-24.75-72.25-82.5-87.25-99
		s-18.25-36,3.25-60.25s52.15-58.248,65-72C329.5,310.75,332,303,332,271.5c0-28.001,0.75-102.75,1-122s0.25-26,0.5-52.5
		c0.081-8.557,2.52-18.24,8.274-26.62c4.973-7.242,10.128-4.47,13.476-8.13c3.202-3.502-0.05-8.252,6.938-13.188
		C372.714,41.628,384.297,36.5,398.25,36.5C434.75,36.5,532.25,36.5,532.25,36.5z"/>
</g>
<g data-id="2">
	<path display="inline" fill="none" stroke="#000000" stroke-width="4" stroke-miterlimit="10" d="M348.151,61.388
		C360.767,48.046,377.719,36.5,398.25,36.5c36.5,0,134,0,134,0c24.25,0,33.408,14.249,31.908,40.749
		c-1.881,33.22-3.988,94.509-4.658,107.501c-1.25,24.25,4.462,31.206,13.75,48.75c11.25,21.25,20.25,35.75,29,47
		c7.37,9.477,16.5,22.477,13,34.25c-5.179,17.419-28.404,21.161-35,22.75c-5.777,1.392-27.17,5.104-31.404,6.648
		c-6.574,2.398-18.096,4.602-31.846,25.352S408.195,534.885,402.386,542.841c-4.241,5.809-11.792,19.194-20.636,24.159
		c-14.25,8-33.771,5.872-47.5-9.75c-21.75-24.75-72.25-82.5-87.25-99s-18.25-36,3.25-60.25s52.15-58.248,65-72
		C329.5,310.75,332,303,332,271.5c0-28.001,0.763-102.75,1-122c0.094-7.624,1.086-22.178-10.25-21.625
		c-5.125,0.25-6.723,0.183-8.974-2.771c-5.651-7.417,1.599-14.729,8.099-24.354S340.125,69.875,348.151,61.388z"/>
</g>
<g data-id="3">
	<path display="inline" fill="none" stroke="#000000" stroke-width="4" stroke-miterlimit="10" d="M338.333,557.833
		C348.762,573.663,370,574,381.75,567c8.713-5.19,16.395-18.351,20.636-24.159C408.195,534.885,503.25,390.25,517,369.5
		c9.254-13.965,17.167-20.427,23.904-22.406C567.809,339.188,576.75,319.5,563.5,303s-9.716-26.194,3.784-55.444
		c7.64-16.552-0.034-25.556-1.452-27.972c-5.365-9.142-7.199-17.996-6.332-34.834c0.67-12.992,3.535-57.259,5-90.5
		c1.729-39.215-12-57.75-31.25-57.75c0,0-98.5,0-135,0c-20.531,0-37.483,11.546-50.099,24.888
		c-8.026,8.487-19.776,29.737-26.276,39.362s-13.125,18.75-8.099,24.354S328.25,136,336.5,141.25s15.5,1.75,18.25-4.75
		s7-14.5,12.5-26.75s17-12.25,22.5-7.5s3.75,5.25,13.75,15.5s5.75,19.25-3.75,25.25s-38.5,20.75-51.75,27.25
		s-15.5,8.75-15.483,25.503C332.544,223.45,332,255.299,332,271.5c0,31.5-2.5,39.25-16.75,54.5c-12.85,13.752-43.5,47.75-65,72
		s-19.211,44.679-3.25,60.25c3.5,3.414,13.833,7.748,24.5-0.752s16.333-2.334,19.667,3.666s9.834,17.334,13.167,23.667
		s9.667,12.833,13,15.333s14.167,16.832,16.833,25.666S333.834,551.003,338.333,557.833z"/>
</g>
<g data-id="4">
	<path display="inline" fill="none" stroke="#000000" stroke-width="4" stroke-miterlimit="10" d="M402.386,542.841
		C408.195,534.885,503.25,390.25,517,369.5c9.254-13.965,17.167-20.427,23.904-22.406C567.809,339.188,576.75,319.5,563.5,303
		s-9.716-26.194,3.784-55.444c7.64-16.552-0.034-25.556-1.452-27.972c-5.365-9.142-7.199-17.996-6.332-34.834
		c0.625-12.13,3.821-51.498,4.691-83.75c0.142-5.25-13.84-47.434-15.44-53.5c-2.001-7.584-4.501-11.002-14.167-11.001
		c0,0-99.834,0.001-136.334,0.001c-20.531,0-37.483,11.546-50.099,24.888c-8.026,8.487-19.776,29.737-26.276,39.362
		s-13.125,18.75-8.099,24.354S328.25,136,336.5,141.25s15.5,1.75,18.25-4.75c2.014-4.76,4.807-10.336,8.356-17.774
		c6.658-13.952,15.56-6.393,17.394-2.226s4.167,8.946,8.5,18.333c4,8.667,0.638,13.977-4.474,16.737
		c-12.277,6.629-27.818,14.408-36.526,18.68c-13.25,6.5-15.5,8.75-15.483,25.503c0.02,20.128-0.251,42.448-0.417,59.362
		c-0.116,11.78,3.901,12.216,12.068,19.383s5.167,13.5,1.333,18.167s-5.667,6.833-30.25,33.335c-12.8,13.799-43.5,47.75-65,72
		s-19.211,44.679-3.25,60.25c3.5,3.414,13.821,7.733,24.5-0.752c9.75-7.748,12.315-3.914,16,1.877
		c1.75,2.75,12.625,18.625,15.375,22.625s14.375,17.625,21,25.625s19.5,20,23,23.625s11.25,10.75,14.75,14s8,10.25,9,12
		s4.75,7,11.125,6.625s8.715-3.427,11.251-7.326C396.031,551.891,402.386,542.841,402.386,542.841z"/>
</g>
<g data-id="5">
	<path display="inline" fill="none" stroke="#000000" stroke-width="4" stroke-miterlimit="10" d="M302.875,482
		c-2.75-4-13.625-19.875-15.375-22.625c-3.685-5.791-6.25-9.625-16-1.877c-10.678,8.485-21,4.166-24.5,0.752
		c-15.961-15.571-18.25-36,3.25-60.25s52.2-58.201,65-72c24.583-26.502,26.417-28.668,30.25-33.335s6.834-11-1.333-18.167
		s-12.184-7.603-12.068-19.383c0.166-16.915,0.438-39.234,0.417-59.362C332.5,179,334.75,176.75,348,170.25
		c8.708-4.271,24.249-12.05,36.526-18.68c5.112-2.76,8.474-8.07,4.474-16.737c-4.333-9.387-6.667-14.167-8.5-18.333
		s-10.735-11.726-17.394,2.226c-3.549,7.438-6.343,13.014-8.356,17.774c-2.75,6.5-10,10-18.25,4.75s-17.698-10.542-22.724-16.146
		s1.599-14.729,8.099-24.354s18.25-30.875,26.276-39.362C360.767,48.046,377.719,36.5,398.25,36.5
		c36.5,0,136.334-0.001,136.334-0.001c9.666-0.001,12.166,3.417,14.167,11.001c1.601,6.066,15.582,48.25,15.44,53.5
		c-0.87,32.252-4.066,71.62-4.691,83.75c-0.867,16.838,0.967,25.692,6.332,34.834c1.418,2.416,9.092,11.42,1.452,27.972
		c-13.5,29.25-17.034,38.944-3.784,55.444s4.309,36.188-22.596,44.094c-6.737,1.979-14.65,8.441-23.904,22.406
		c-13.75,20.75-101.627,154.076-107.114,162.258c-4.785,7.135-16.136,21.742-24.636,27.742s-21.375,10.25-32.25,2.125
		c-12.357-9.232-12.125-17.375-19.25-34.375C328.553,514.85,302.875,482,302.875,482z"/>
</g>
<g data-id="6">
	<path display="inline" fill="none" stroke="#000000" stroke-width="4" stroke-miterlimit="10" d="M321.875,100.75
		c6.158-9.848,18.25-30.875,26.276-39.362C360.767,48.046,377.719,36.5,398.25,36.5c27.249,0,89.794,0,119.75,0
		c14.25,0,26.25,1.75,34,24.75s9,54.5,9.5,65s-0.644,37.723-1.016,43.215c-0.451,6.654-0.814,11.98-0.984,15.285
		c-0.867,16.838,0.967,25.692,6.332,34.834c1.418,2.416,9.092,11.42,1.452,27.972c-13.5,29.25-17.034,38.944-3.784,55.444
		s4.309,36.188-22.596,44.094c-6.737,1.979-14.65,8.441-23.904,22.406c-13.75,20.75-101.627,154.076-107.114,162.258
		c-4.785,7.135-16.136,21.742-24.636,27.742s-21.375,10.25-32.25,2.125c-12.357-9.232-12.125-17.375-19.25-34.375
		c-5.197-12.4-30.875-45.25-30.875-45.25c-2.75-4-13.625-19.875-15.375-22.625c-3.685-5.791-6.25-9.625-16-1.877
		c-10.678,8.485-21,4.166-24.5,0.752c-15.961-15.571-18.25-36,3.25-60.25s52.2-58.201,65-72
		c24.583-26.502,26.417-28.668,30.25-33.335s6.834-11-1.333-18.167s-12.184-7.603-12.068-19.383
		c0.166-16.915,0.438-39.234,0.417-59.362C332.5,179,334.75,176.75,348,170.25c8.708-4.271,24.024-12.485,36.526-18.68
		C393.75,147,399.5,133.5,392,121.25s-12.235-21.509-15.75-27.5c-5.917-10.084-20.417-8.167-23,6.75
		c-1.992,11.501-1.5,26.667-14.5,30.667S308.327,122.417,321.875,100.75z"/>
</g>
<g data-id="7">
	<path fill="none" stroke="#000000" stroke-width="4" stroke-miterlimit="10" d="M353.25,100.5
		c-1.992,11.501-1.5,26.667-14.5,30.667s-30.422-8.75-16.875-30.417c6.158-9.848,18.25-30.875,26.276-39.362
		C360.767,48.046,377.719,36.5,398.25,36.5c27.249,0,89.794,0,119.75,0c14.25,0,26.25,1.75,34,24.75s9,54.5,9.5,65
		s-0.644,37.723-1.016,43.215c-0.451,6.654-0.814,11.98-0.984,15.285c-0.867,16.838,0.967,25.692,6.332,34.834
		c1.418,2.416,9.092,11.42,1.452,27.972c-13.5,29.25-17.034,38.944-3.784,55.444s4.309,36.188-22.596,44.094
		c-6.737,1.979-14.65,8.441-23.904,22.406c-13.75,20.75-101.627,154.076-107.114,162.258c-4.785,7.135-16.136,21.742-24.636,27.742
		s-21.375,10.25-32.25,2.125c-12.357-9.232-12.125-17.375-19.25-34.375c-5.197-12.4-30.875-45.25-30.875-45.25
		c-2.75-4-13.625-19.875-15.375-22.625c-3.685-5.791-5.762-8.967-16-1.877c-19.5,13.503-28.833-11.664-31.667-17.997
		s-4.167-12.167-4.5-19s0.75-6.833,5.167-11.834c21.454-24.291,61.95-68.868,74.75-82.667
		c14.245-15.357,21.078-22.351,24.634-26.778c3.491-4.347,10.991-11.222,27.991-7.472s33.5,8.818,44.5,7.472
		s19.5-5.847,26.875-11.097s31-20.875,38.875-26.125s14.75-3.5,16.375,6.125S498,285.75,498.875,290s1.625,12.125,10.375,10.625
		s17-29,18.25-36.125s1.25-8.75,1.875-13.625s-1.75-8.875-5.125-12.5s-121.375-129.5-129-137.75s-15.75-15.875-28.875-13.5
		S353.25,100.5,353.25,100.5z"/>
</g>
</svg>
